<svg class="animated" id="freepik_stories-brain-organ" xmlns="http://www.w3.org/2000/svg" viewBox="0 0 500 500" version="1.1" xmlns:xlink="http://www.w3.org/1999/xlink" xmlns:svgjs="http://svgjs.com/svgjs"><style>svg#freepik_stories-brain-organ:not(.animated) .animable {opacity: 0;}svg#freepik_stories-brain-organ.animated #freepik--Brain--inject-2 {animation: 6s Infinite  linear floating;animation-delay: 0s;}            @keyframes floating {                0% {                    opacity: 1;                    transform: translateY(0px);                }                50% {                    transform: translateY(-10px);                }                100% {                    opacity: 1;                    transform: translateY(0px);                }            }        </style><g id="freepik--background-complete--inject-2" class="animable" style="transform-origin: 250.012px 275.94px;"><g id="ell4oxsgew3wn"><path d="M443.3,443.47c-12.42,17.07-18.82,19.95-18.82,19.95S420,489.36,415.59,500H84.42c-4.44-10.64-8.9-36.58-8.9-36.58s-6.4-2.88-18.82-19.95S31,386.27,33.2,362.27s21.62-24.72,21.62-24.72-11-105.27,3-152.67c30.78-104.45,137-133,192.19-133s161.41,28.54,192.19,133c14,47.4,3,152.67,3,152.67s19.4.72,21.62,24.72S455.71,426.4,443.3,443.47Z" style="fill: rgb(235, 235, 235); opacity: 0.8; transform-origin: 250.012px 275.94px;" class="animable"></path></g></g><g id="freepik--Brain--inject-2" class="animable animator-active" style="transform-origin: 250px 250.001px;"><rect x="234.35" y="96.02" width="31.3" height="226.48" style="fill: rgb(150, 146, 255); transform-origin: 250px 209.26px;" id="elie1glhwwcta" class="animable"></rect><path d="M184.79,337.21s4.38,20,16.22,26.28,25.23,3.69,31.9-1,9-25.3,9-25.3Z" style="fill: rgb(150, 146, 255); transform-origin: 213.35px 352.2px;" id="elzs573ml8qtp" class="animable"></path><g id="elmbydc95yzmj"><path d="M184.79,337.21s4.38,20,16.22,26.28,25.23,3.69,31.9-1,9-25.3,9-25.3Z" style="opacity: 0.1; transform-origin: 213.35px 352.2px;" class="animable"></path></g><g id="el5asvcrkf3dm"><path d="M189.34,337.21S193,354,203,359.3s21.21,3.1,26.82-.82,7.55-21.27,7.55-21.27Z" style="fill: rgb(255, 255, 255); opacity: 0.5; transform-origin: 213.355px 349.824px;" class="animable"></path></g><path d="M126.41,341.42s1.31,8.2,5.47,9.85a6.46,6.46,0,0,0,5.14,6.67s-.11,3.28,5,4.37c0,0,.88,2.74,6.08,2.3a6.37,6.37,0,0,0,7.38,1.42s2.62,3.18,7.55,1.54c0,0,4.26,1.81,7.11.47,0,0,4.27,1.82,7-.69,0,0,4.49,2.95,7.22-1.1a5.14,5.14,0,0,0,6.13-2s4.37-1.2,5.36-4.37c0,0,8.64-2.85,6.23-18.49Z" style="fill: rgb(150, 146, 255); transform-origin: 164.457px 355.034px;" id="eljrwi1voc8j" class="animable"></path><g id="elgps1t97sh1u"><path d="M126.41,341.42s1.31,8.2,5.47,9.85a6.46,6.46,0,0,0,5.14,6.67s-.11,3.28,5,4.37c0,0,.88,2.74,6.08,2.3a6.37,6.37,0,0,0,7.38,1.42s2.62,3.18,7.55,1.54c0,0,4.26,1.81,7.11.47,0,0,4.27,1.82,7-.69,0,0,4.49,2.95,7.22-1.1a5.14,5.14,0,0,0,6.13-2s4.37-1.2,5.36-4.37c0,0,8.64-2.85,6.23-18.49Z" style="opacity: 0.1; transform-origin: 164.457px 355.034px;" class="animable"></path></g><g id="elrh1tyv2cssh"><path d="M131.65,341.42s1.13,7.07,4.72,8.49a5.57,5.57,0,0,0,4.43,5.75s-.09,2.83,4.34,3.78c0,0,.76,2.35,5.24,2a5.5,5.5,0,0,0,6.36,1.22s2.27,2.74,6.51,1.32c0,0,3.68,1.57,6.13.41,0,0,3.68,1.58,6-.59,0,0,3.87,2.54,6.23-.95a4.42,4.42,0,0,0,5.28-1.7s3.77-1,4.62-3.77c0,0,7.45-2.45,5.38-15.94Z" style="fill: rgb(255, 255, 255); opacity: 0.5; transform-origin: 164.452px 353.183px;" class="animable"></path></g><path d="M315.21,337.21s-4.38,20-16.22,26.28-25.23,3.69-31.9-1-9-25.3-9-25.3Z" style="fill: rgb(150, 146, 255); transform-origin: 286.65px 352.2px;" id="ellhhfnqirrsj" class="animable"></path><g id="el9u5o3t40jqm"><path d="M315.21,337.21s-4.38,20-16.22,26.28-25.23,3.69-31.9-1-9-25.3-9-25.3Z" style="opacity: 0.1; transform-origin: 286.65px 352.2px;" class="animable"></path></g><g id="elr7glq7xv8pp"><path d="M310.66,337.21S307,354,297,359.3s-21.21,3.1-26.82-.82-7.55-21.27-7.55-21.27Z" style="fill: rgb(255, 255, 255); opacity: 0.5; transform-origin: 286.645px 349.824px;" class="animable"></path></g><path d="M373.59,341.42s-1.31,8.2-5.47,9.85a6.46,6.46,0,0,1-5.14,6.67s.11,3.28-5,4.37c0,0-.88,2.74-6.08,2.3a6.37,6.37,0,0,1-7.38,1.42s-2.62,3.18-7.55,1.54c0,0-4.26,1.81-7.11.47,0,0-4.27,1.82-7-.69,0,0-4.49,2.95-7.22-1.1a5.14,5.14,0,0,1-6.13-2s-4.37-1.2-5.36-4.37c0,0-8.64-2.85-6.23-18.49Z" style="fill: rgb(150, 146, 255); transform-origin: 335.543px 355.034px;" id="elnqj9qe1vyzc" class="animable"></path><g id="elnvbd8i860fq"><path d="M373.59,341.42s-1.31,8.2-5.47,9.85a6.46,6.46,0,0,1-5.14,6.67s.11,3.28-5,4.37c0,0-.88,2.74-6.08,2.3a6.37,6.37,0,0,1-7.38,1.42s-2.62,3.18-7.55,1.54c0,0-4.26,1.81-7.11.47,0,0-4.27,1.82-7-.69,0,0-4.49,2.95-7.22-1.1a5.14,5.14,0,0,1-6.13-2s-4.37-1.2-5.36-4.37c0,0-8.64-2.85-6.23-18.49Z" style="opacity: 0.1; transform-origin: 335.543px 355.034px;" class="animable"></path></g><g id="elreqlwb0yrmg"><path d="M368.35,341.42s-1.13,7.07-4.72,8.49a5.57,5.57,0,0,1-4.43,5.75s.09,2.83-4.34,3.78c0,0-.76,2.35-5.24,2a5.5,5.5,0,0,1-6.36,1.22s-2.27,2.74-6.51,1.32c0,0-3.68,1.57-6.13.41,0,0-3.68,1.58-6-.59,0,0-3.87,2.54-6.23-.95a4.42,4.42,0,0,1-5.28-1.7s-3.77-1-4.62-3.77c0,0-7.45-2.45-5.38-15.94Z" style="fill: rgb(255, 255, 255); opacity: 0.5; transform-origin: 335.548px 353.183px;" class="animable"></path></g><path d="M269,354.33c-.13,5.25,5.06,10.5,3.89,17.28s-7,10.28-6.69,13.14,4.4,3.49,4.52,8.31-4.52,29.32-4.52,29.32H233.78s-4.63-24.51-4.52-29.32,4.26-5.47,4.52-8.31-5.51-6.35-6.69-13.14,4-12,3.89-17.28-14.53-6.78-19.64-11.6-2.11-17.28,0-20.2S223,315.82,250,315.82s36.56,3.79,38.66,6.71,5.11,15.38,0,20.2S269.15,349.08,269,354.33Z" style="fill: rgb(150, 146, 255); transform-origin: 249.999px 369.1px;" id="elshatfqp9xd" class="animable"></path><g id="ely2fgi2rp89"><path d="M269,354.33c-.13,5.25,5.06,10.5,3.89,17.28s-7,10.28-6.69,13.14,4.4,3.49,4.52,8.31-4.52,29.32-4.52,29.32H233.78s-4.63-24.51-4.52-29.32,4.26-5.47,4.52-8.31-5.51-6.35-6.69-13.14,4-12,3.89-17.28-14.53-6.78-19.64-11.6-2.11-17.28,0-20.2S223,315.82,250,315.82s36.56,3.79,38.66,6.71,5.11,15.38,0,20.2S269.15,349.08,269,354.33Z" style="opacity: 0.2; transform-origin: 249.999px 369.1px;" class="animable"></path></g><g id="elvo8wi2sumjk"><path d="M259.55,358.59c-.06,4.93,2.55,9.85,2,16.2s-3.49,9.64-3.37,12.32,2.22,3.27,2.27,7.78-2.27,27.49-2.27,27.49H241.86s-2.33-23-2.27-27.49,2.13-5.12,2.27-7.78-2.78-5.95-3.37-12.32,2-11.27,2-16.2-7.3-6.35-9.87-10.87-1.06-16.19,0-18.93,5.87-6.29,19.42-6.29,18.36,3.55,19.42,6.29,2.56,14.42,0,18.93S259.62,353.67,259.55,358.59Z" style="fill: rgb(255, 255, 255); opacity: 0.5; transform-origin: 250.038px 372.44px;" class="animable"></path></g><path d="M246.32,112.17c2.67,0,2.18-6.09,2.18-16.15s-4.05-13.57-8.5-15.91-15.6-4.42-29.71.59a9.09,9.09,0,0,0-4.91,3.62s-8.78,1.52-11.7,3.16c0,0-22.58-.82-30.3,20.12,0,0-22.47,1.06-30.54,16.85,0,0-21.06,11-29.48,37.32,0,0-17.31,10.29-20.59,18.84s-2.57,18.83-2.57,18.83a38.27,38.27,0,0,0-7.26,20.36c-.46,11.81,2.46,17.78,2.46,17.78a48.11,48.11,0,0,0-7.14,31.47c2.11,18.72,8.43,23.4,8.43,23.4s0,23.68,16,36.26c11.17,8.81,26.45,9.42,26.45,9.42s19.7,31.3,67.66,13.51c28.49-10.56,30.72-21.6,31-31,0,0,19-6.56,22.07-10.3s9.91-22,8.7-39.22a163.88,163.88,0,0,0-2.41-18.84A117.61,117.61,0,0,0,248.5,233c.42-11.47-2.7-21.56-3.93-23.4a69.22,69.22,0,0,0,4-20.24c.24-10.3-3.56-25.27-3.56-25.27s2.76-6.79,3.46-22.93A123.1,123.1,0,0,0,246.32,112.17Z" style="fill: rgb(150, 146, 255); transform-origin: 158.316px 217.365px;" id="el0bmy0v90wua6" class="animable"></path><g id="elc8is9if6tkh"><g style="opacity: 0.6; transform-origin: 158.316px 217.365px;" class="animable"><path d="M246.32,112.17c2.67,0,2.18-6.09,2.18-16.15s-4.05-13.57-8.5-15.91-15.6-4.42-29.71.59a9.09,9.09,0,0,0-4.91,3.62s-8.78,1.52-11.7,3.16c0,0-22.58-.82-30.3,20.12,0,0-22.47,1.06-30.54,16.85,0,0-21.06,11-29.48,37.32,0,0-17.31,10.29-20.59,18.84s-2.57,18.83-2.57,18.83a38.27,38.27,0,0,0-7.26,20.36c-.46,11.81,2.46,17.78,2.46,17.78a48.11,48.11,0,0,0-7.14,31.47c2.11,18.72,8.43,23.4,8.43,23.4s0,23.68,16,36.26c11.17,8.81,26.45,9.42,26.45,9.42s19.7,31.3,67.66,13.51c28.49-10.56,30.72-21.6,31-31,0,0,19-6.56,22.07-10.3s9.91-22,8.7-39.22a163.88,163.88,0,0,0-2.41-18.84A117.61,117.61,0,0,0,248.5,233c.42-11.47-2.7-21.56-3.93-23.4a69.22,69.22,0,0,0,4-20.24c.24-10.3-3.56-25.27-3.56-25.27s2.76-6.79,3.46-22.93A123.1,123.1,0,0,0,246.32,112.17Z" style="fill: rgb(255, 255, 255); transform-origin: 158.316px 217.365px;" id="elniu28cm1nsn" class="animable"></path></g></g><g id="el6llzwa78by5"><g style="opacity: 0.5; transform-origin: 158.246px 264.285px;" class="animable"><path d="M239.8,310.38c-3,3.74-22.07,10.3-22.07,10.3-.23,9.36-2.46,20.4-31,31-48,17.79-67.66-13.51-67.66-13.51s-15.28-.61-26.45-9.41c-16-12.59-16-36.27-16-36.27s-6.32-4.68-8.43-23.41a48.1,48.1,0,0,1,7.14-31.46s-2.93-6-2.45-17.78a38.25,38.25,0,0,1,7.24-20.36s-.7-10.3,2.58-18.84c1.16-3,4.09-6.28,7.4-9.22a4.52,4.52,0,0,0-.23.5c-3.13,7.82-2.46,17.24-2.46,17.24a34.15,34.15,0,0,0-6.94,18.63C80.09,218.57,82.89,224,82.89,224a42.57,42.57,0,0,0-6.83,28.8c2,17.13,8.06,21.42,8.06,21.42s0,21.67,15.28,33.19c10.69,8.06,25.3,8.62,25.3,8.62s18.86,28.64,64.75,12.37c27.26-9.67,29.39-19.78,29.62-28.35,0,0,18.21-6,21.11-9.42,2.18-2.57,6.43-12.63,7.92-24.14.15,1.48.29,3,.4,4.64C249.71,288.35,242.84,306.64,239.8,310.38Z" style="fill: rgb(150, 146, 255); transform-origin: 158.246px 264.285px;" id="el9ofrvrqiegh" class="animable"></path></g></g><path d="M184.08,103.28A52.06,52.06,0,0,1,229,96.13c7.64,2.54,15.78,6.77,19.36,14.65A62.79,62.79,0,0,1,252,134.13a75.9,75.9,0,0,1-6.94,30,108.09,108.09,0,0,0,3.1-29.94,70,70,0,0,0-4.25-21.53c-3-6.15-10.07-9.76-16.33-12.07-14.17-5-29.6-3.4-43.48,2.71Z" style="fill: rgb(150, 146, 255); transform-origin: 218.059px 129.011px;" id="elfiu62mdefxu" class="animable"></path><path d="M205.38,84.32c5.09-.59,9.76,2.85,11.94,7.23a9.71,9.71,0,0,1,1,4.94,24.51,24.51,0,0,1-4-2.53,34.32,34.32,0,0,1-8.9-9.64Z" style="fill: rgb(150, 146, 255); transform-origin: 211.86px 90.372px;" id="el6nn1oyrdw63" class="animable"></path><path d="M177.77,142.7c14.61-5,31.41-6.67,45.79.08,9.73,4.57,17.15,13,22.26,22.24,3.6,7.37,4.21,15.39,3.66,23.3a78.15,78.15,0,0,1-5.09,22.46c1.8-9.86,2.72-20,1.53-29.94a37.36,37.36,0,0,0-5-15.23,78.77,78.77,0,0,0-8-10c-14.18-15.17-35.94-15.41-55.18-12.9Z" style="fill: rgb(150, 146, 255); transform-origin: 213.698px 174.547px;" id="el36cq804rd2n" class="animable"></path><path d="M163.38,107.6c1,4.54,2,9.4,4.91,13,5.91,7,16.64,5.73,25.1,5.24,4.77-.4,9.59-1,14.56-1.34A60.53,60.53,0,0,1,194,129.62c-17.26,4.41-34.74-1-30.63-22Z" style="fill: rgb(150, 146, 255); transform-origin: 185.356px 119.323px;" id="elo8votwq2geh" class="animable"></path><path d="M145.83,160.38c-3.1-7.74.11-17,5.57-22.92A34.75,34.75,0,0,1,166.8,128c7.06-1.57,7.23-1.84,1,2.19a106.93,106.93,0,0,0-8.9,6.83c-7,6-11.94,14-13.11,23.39Z" style="fill: rgb(150, 146, 255); transform-origin: 158.456px 143.671px;" id="elv7dok1zbcae" class="animable"></path><path d="M137.28,145.08c-4.87-9.4,3.08-21.92,13.43-22.48-2.5,3.14-5.23,5.76-7.35,9.12-2.83,4.13-4.44,8.44-6.08,13.36Z" style="fill: rgb(150, 146, 255); transform-origin: 143.261px 133.84px;" id="elckmgufpvsl" class="animable"></path><path d="M115.18,153.78c5.51-7,17-14.32,26.1-9.71,4.56,2.52,8.24,10,3.49,13.81a7.6,7.6,0,0,1-2.53,1.43,8.18,8.18,0,0,0,2-4.56c0-1.52-1-2.68-1.81-3.85-5.81-7.86-19.83.33-27.28,2.88Z" style="fill: rgb(150, 146, 255); transform-origin: 131.07px 150.969px;" id="elkcz2tpmuc5l" class="animable"></path><path d="M216.37,114c18,4,27.58,24.1,10.29,36.05a45.42,45.42,0,0,0,4.05-10.18c2.51-11-6.8-19.08-14.34-25.87Z" style="fill: rgb(150, 146, 255); transform-origin: 226.061px 132.025px;" id="eldep0ab8ace" class="animable"></path><path d="M80.2,199.44c.19-4.55,3.74-8.12,7.94-9.29a7.85,7.85,0,0,1,4.52.11A21.36,21.36,0,0,1,90,193.55a20.71,20.71,0,0,1-9.82,5.89Z" style="fill: rgb(150, 146, 255); transform-origin: 86.42px 194.655px;" id="elvun7x3lfv0s" class="animable"></path><path d="M101.33,163c-3.46,6.37-4,13.17-3.18,20.08s7.27,10.2,14.11,10.72c-8,3.77-17.7-.77-19-10-1.08-7.59,1-16.77,8-20.83Z" style="fill: rgb(150, 146, 255); transform-origin: 102.626px 179.049px;" id="elk10acvvnqo" class="animable"></path><path d="M126.23,183.24c-11.86,5.69-22,17.51-21,31.24,1,11.17,5.48,28.63,19.43,28,11.72-.7,21.87-9.87,30.39-17.24l-3.64,9.13a22.4,22.4,0,0,0,3.88,21.51c5.38,6.2,14.29,6.32,22.14,6.64l1.42.06c.85,7.18,6.31,13,12.42,16.5s13.11,5.13,20.1,6c-7.17,0-14.46-1-21-4.19a28.1,28.1,0,0,1-12.37-10.95,19,19,0,0,1-2.24-5.42l1.63,1.42c-6.39,0-13.58.24-19.64-2.8-9.63-4.85-13.89-16.86-11.77-27.07a21.47,21.47,0,0,1,1-3.51l3.85,2.74a58.91,58.91,0,0,1-11.87,8c-24.46,12.39-36.27-5.67-37.11-28.68-.18-14.76,11.07-26.79,24.46-31.3Z" style="fill: rgb(150, 146, 255); transform-origin: 156.609px 234.16px;" id="elokcjmnq35sh" class="animable"></path><path d="M79.5,214.42c-4.16,27.24.47,50.39,31.59,54.8a63.17,63.17,0,0,0,24.71-2.42,47.57,47.57,0,0,1-18.39,6c-13.15,1.56-27.85-2.95-36-14-9-12.95-7.52-30.44-1.86-44.39Z" style="fill: rgb(150, 146, 255); transform-origin: 105.391px 243.755px;" id="elyoas1imsxc" class="animable"></path><path d="M99.34,278.06c3.58,11.58,13.87,19.28,25.15,22.63a35.08,35.08,0,0,0,17,.68,79.6,79.6,0,0,0,17.27-5.5,43.3,43.3,0,0,1-16.35,9.26,32.35,32.35,0,0,1-19.4.27c-12-3.48-23.93-14-23.68-27.34Z" style="fill: rgb(150, 146, 255); transform-origin: 129.043px 292.408px;" id="elrrs8japtyrk" class="animable"></path><path d="M145.62,309.76c21.24,18,51.69,15.54,76.55,7.12,7.38-2.31,15.3-4.88,19.81-11.55s5.35-15,6-23.06c.78,8.19.74,17.18-3.47,24.66-4.26,7.78-13,11.49-20.95,14.24-10.41,3.74-21.49,6.64-32.7,6.84-16.54.43-34.68-4.87-45.26-18.25Z" style="fill: rgb(150, 146, 255); transform-origin: 196.985px 305.152px;" id="elxdpncn124v" class="animable"></path><path d="M245,255.1c15.06,25.22-7.81,57.73-36.95,49-8.29-2.44-15.33-7.8-20.76-14.3,6.6,4.76,13.75,9,21.7,10.57,26.48,5.34,44-21,36-45.23Z" style="fill: rgb(150, 146, 255); transform-origin: 218.53px 280.325px;" id="ely8a3fi8kerq" class="animable"></path><path d="M122.92,326.87c-8.23.8-16.81.15-24.51-3.05-16-6-27.22-24.08-24.3-41.21a60.5,60.5,0,0,1,8.89-23c-2.79,8.74-5.12,17.44-5.12,26.35a37.67,37.67,0,0,0,5.53,19c5.24,9.19,14.63,15.72,24.76,18.75l2.85.89,5.87,1.34c2,.3,4,.61,6,1Z" style="fill: rgb(150, 146, 255); transform-origin: 98.2834px 293.395px;" id="elbecy3giqbsr" class="animable"></path><path d="M138.81,332.22c2.44,3.78,10.47,3.58,14.6,3.79,10.38,0,21-1.39,30.68-5a33.48,33.48,0,0,0,13.09-8.48,19.31,19.31,0,0,1-4.61,6.95c-10.21,9.65-26,12.13-39.47,10.41-4.37-.71-13.25-2.57-14.29-7.64Z" style="fill: rgb(150, 146, 255); transform-origin: 167.995px 331.463px;" id="ele2vfnz53xfi" class="animable"></path><path d="M192.16,182c4.06,13.83,11.44,17.15,25.16,17.18,8.26,0,17.33,1.38,23.81,7.21,9.61,8.75,9.31,23.35,6.54,35-.1-11-.42-24.16-9.46-31.63-5.8-4.67-13.6-5.56-21-5.74A39.63,39.63,0,0,1,204.89,202c-8.79-3-12.92-11.18-12.73-20Z" style="fill: rgb(150, 146, 255); transform-origin: 220.754px 211.695px;" id="eloew4tklyjt" class="animable"></path><path d="M115.53,172.1c5.11-7.28,12-13.92,21.23-15.7,4.87-1,10.71.46,13.75,4.79,2.57,4,3.89,8.2,5.47,12.59,1.63,5.58,5.22,17-1.28,20.91a45.61,45.61,0,0,1-6.1,3.05c-7.95,3.34-14.81,8.48-18.21,16.68,1.41-9.07,8.63-16,16.49-20.06a54.77,54.77,0,0,0,5.33-3.19,3.42,3.42,0,0,0,1.16-1.25,8.23,8.23,0,0,0,.36-2.69c0-3.94-1.23-8.1-2.44-11.93a73.65,73.65,0,0,0-4.55-11.42c-2-3.06-5.85-4.07-9.48-3.74-8.27.88-15.56,6.44-21.73,12Z" style="fill: rgb(150, 146, 255); transform-origin: 136.988px 185.259px;" id="elz6gmv3pc9x" class="animable"></path><path d="M164.66,252.55c-2.83-6.84,4.59-19.83,12.66-18.84a6.15,6.15,0,0,1,1.52.56c3.66,1.8,7.28,3.23,10.9,5.45a30.73,30.73,0,0,1-9.19-.39,24.37,24.37,0,0,1-3.71-1c-.18-.06-.19-.08-.3,0a5.49,5.49,0,0,0-2.3,1.1,28.77,28.77,0,0,0-9.58,13.12Z" style="fill: rgb(150, 146, 255); transform-origin: 176.893px 243.103px;" id="el1hgmmb13201" class="animable"></path><path d="M218.32,224.94c15.33-5.8,28.17,1.07,29.36,17.93.45,6.93.15,15.45-6.46,19.63-4.41,2.62-9.54,2.6-14.36,1.61-7-1.62-12.91-6.54-17.19-12a51.84,51.84,0,0,1-7-12l2.47,1.52c-13.23,1.84-27.75.91-37.28-10-9-10.22-11.47-23.84-12.43-36.88-.5-9.81,1.59-21.13,10-27.32C178.53,158,198.52,162,211.85,169c-8.71-3.56-18.18-5.59-27.59-4.9-18.51,1-26.12,12.45-24.65,30.34.81,9.13,2.59,18.39,6.76,26.57,8.44,16.45,23.35,17.85,40,15.64,3.3,8.16,8.42,16.51,15.95,21.07,4.94,2.94,11.76,4.31,17,1.63,5.4-3.27,5.56-10.62,5.57-16.35-.39-16-11.92-22-26.57-18.08Z" style="fill: rgb(150, 146, 255); transform-origin: 201.589px 213.305px;" id="el9nehy687u0q" class="animable"></path><path d="M148.25,246.33c-11.35,8-16,21.29-7.28,33.06a41.76,41.76,0,0,0,22,15.77c7.29,2.35,15,2.92,22.69,3a50.81,50.81,0,0,1-23.68.79C146.68,296,129.6,280.78,132.7,264c1.47-8.14,8-14.85,15.55-17.65Z" style="fill: rgb(150, 146, 255); transform-origin: 158.996px 273.156px;" id="elfagkg7r30do" class="animable"></path><path d="M240,80.11c11,4.12,13,23.58,6.32,32.06a127.7,127.7,0,0,0-1.41-16.61C244,90.05,243.09,85,240,80.11Z" style="fill: rgb(150, 146, 255); transform-origin: 245.079px 96.14px;" id="ele2s8u9y4xkq" class="animable"></path><g id="elpnpqnzcq87s"><g style="opacity: 0.5; transform-origin: 161.664px 183.193px;" class="animable"><path d="M235.07,165.5c-3-.29-5.47,20.82-3.17,24.95,2.62,4.7,9.62,10.83,10.72,7.87S239.66,165.94,235.07,165.5Z" style="fill: rgb(255, 255, 255); transform-origin: 236.899px 182.297px;" id="elntvdvxd6g8g" class="animable"></path><path d="M84.6,220.9c-3-.18-5.47,13.14-3.17,15.74,2.63,3,9.63,6.84,10.72,5S89.2,221.18,84.6,220.9Z" style="fill: rgb(255, 255, 255); transform-origin: 86.4281px 231.509px;" id="elj36fsdgwf1o" class="animable"></path><path d="M173.86,213.64c-4.22,2.43-.49,13.78,7.87,16.57s15.41.49,15.09-1.64S178.12,211.18,173.86,213.64Z" style="fill: rgb(255, 255, 255); transform-origin: 184.471px 222.435px;" id="elej81guf4fnf" class="animable"></path><path d="M168.29,106.15c-2.66,2-.31,11.23,5,13.51s9.71.4,9.51-1.34S171,104.14,168.29,106.15Z" style="fill: rgb(255, 255, 255); transform-origin: 174.998px 113.322px;" id="elwmy62a9w3id" class="animable"></path><path d="M183.09,264.22c-1.59,1.07-.5,6.49,2.49,8s5.6.51,5.53-.5S184.7,263.13,183.09,264.22Z" style="fill: rgb(255, 255, 255); transform-origin: 186.736px 268.552px;" id="eln1x8cuqvwhe" class="animable"></path><path d="M227.41,251.27c-1.91,1.92,5.36,6.35,8,5.36s6.56-3.17,4.48-5.36S229.05,249.63,227.41,251.27Z" style="fill: rgb(255, 255, 255); transform-origin: 233.785px 253.299px;" id="eluq37proobwa" class="animable"></path><path d="M141.15,261.7c-2.75-1.54-3,9-.72,11.77s6.35,6.65,7.27,3.27S143.52,263,141.15,261.7Z" style="fill: rgb(255, 255, 255); transform-origin: 143.348px 269.801px;" id="el758nh2p2g9x" class="animable"></path><path d="M111,204.67c.84,2.57,8.09-1.9,8.4-4.69s.15-7.29-2.74-6.43S110.25,202.46,111,204.67Z" style="fill: rgb(255, 255, 255); transform-origin: 115.205px 199.44px;" id="elj6xqmz4hkz" class="animable"></path><path d="M168.34,213.27c2.17.93,5.37-5.11,4-6.74s-4.11-3.91-5.92-2S166.49,212.48,168.34,213.27Z" style="fill: rgb(255, 255, 255); transform-origin: 169.178px 208.585px;" id="elsa186gyn7op" class="animable"></path><path d="M153.44,282.88c-.37-1.47-4.32-2.32-4.56-1.21s-.28,3.19,1.27,3.94S153.76,284.14,153.44,282.88Z" style="fill: rgb(255, 255, 255); transform-origin: 151.114px 283.462px;" id="elpfqequcvyn" class="animable"></path><path d="M113.2,282.88c-.37-1.47-4.31-2.32-4.56-1.21s-.28,3.19,1.27,3.94S113.52,284.14,113.2,282.88Z" style="fill: rgb(255, 255, 255); transform-origin: 110.872px 283.462px;" id="el7v53j83lb7" class="animable"></path><path d="M233.2,80.63c-2.35.22-2.29,7.06-.32,7.84S238.36,90,239,87.4,235.21,80.45,233.2,80.63Z" style="fill: rgb(255, 255, 255); transform-origin: 235.241px 84.915px;" id="elcgslsch6pen" class="animable"></path></g></g><path d="M253.68,112.17c-2.67,0-2.18-6.09-2.18-16.15s4.05-13.57,8.5-15.91,15.6-4.42,29.71.59a9.09,9.09,0,0,1,4.91,3.62s8.78,1.52,11.7,3.16c0,0,22.58-.82,30.3,20.12,0,0,22.47,1.06,30.54,16.85,0,0,21.06,11,29.48,37.32,0,0,17.31,10.29,20.59,18.84s2.57,18.83,2.57,18.83a38.27,38.27,0,0,1,7.26,20.36c.46,11.81-2.46,17.78-2.46,17.78a48.11,48.11,0,0,1,7.14,31.47c-2.11,18.72-8.43,23.4-8.43,23.4s0,23.68-16,36.26c-11.17,8.81-26.45,9.42-26.45,9.42s-19.7,31.3-67.66,13.51c-28.49-10.56-30.72-21.6-31-31,0,0-19-6.56-22.07-10.3s-9.91-22-8.7-39.22a163.88,163.88,0,0,1,2.41-18.84A117.61,117.61,0,0,1,251.5,233c-.42-11.47,2.7-21.56,3.93-23.4a69.22,69.22,0,0,1-4-20.24c-.24-10.3,3.56-25.27,3.56-25.27s-2.76-6.79-3.46-22.93A123.1,123.1,0,0,1,253.68,112.17Z" style="fill: rgb(150, 146, 255); transform-origin: 341.684px 217.365px;" id="elniossadajt" class="animable"></path><g id="el2kjjghwlrvq"><g style="opacity: 0.6; transform-origin: 341.684px 217.365px;" class="animable"><path d="M253.68,112.17c-2.67,0-2.18-6.09-2.18-16.15s4.05-13.57,8.5-15.91,15.6-4.42,29.71.59a9.09,9.09,0,0,1,4.91,3.62s8.78,1.52,11.7,3.16c0,0,22.58-.82,30.3,20.12,0,0,22.47,1.06,30.54,16.85,0,0,21.06,11,29.48,37.32,0,0,17.31,10.29,20.59,18.84s2.57,18.83,2.57,18.83a38.27,38.27,0,0,1,7.26,20.36c.46,11.81-2.46,17.78-2.46,17.78a48.11,48.11,0,0,1,7.14,31.47c-2.11,18.72-8.43,23.4-8.43,23.4s0,23.68-16,36.26c-11.17,8.81-26.45,9.42-26.45,9.42s-19.7,31.3-67.66,13.51c-28.49-10.56-30.72-21.6-31-31,0,0-19-6.56-22.07-10.3s-9.91-22-8.7-39.22a163.88,163.88,0,0,1,2.41-18.84A117.61,117.61,0,0,1,251.5,233c-.42-11.47,2.7-21.56,3.93-23.4a69.22,69.22,0,0,1-4-20.24c-.24-10.3,3.56-25.27,3.56-25.27s-2.76-6.79-3.46-22.93A123.1,123.1,0,0,1,253.68,112.17Z" style="fill: rgb(255, 255, 255); transform-origin: 341.684px 217.365px;" id="el6qos9jwxkp2" class="animable"></path></g></g><g id="elxd6sz41lym9"><g style="opacity: 0.5; transform-origin: 341.781px 264.285px;" class="animable"><path d="M260.2,310.38c3,3.74,22.07,10.3,22.07,10.3.23,9.36,2.46,20.4,31,31,48,17.79,67.66-13.51,67.66-13.51s15.28-.61,26.45-9.41c16-12.59,16-36.27,16-36.27s6.32-4.68,8.43-23.41a48.1,48.1,0,0,0-7.14-31.46s2.93-6,2.45-17.78a38.25,38.25,0,0,0-7.24-20.36s.7-10.3-2.58-18.84c-1.16-3-4.09-6.28-7.4-9.22a4.52,4.52,0,0,1,.23.5c3.13,7.82,2.46,17.24,2.46,17.24a34.15,34.15,0,0,1,6.94,18.63c.45,10.82-2.35,16.28-2.35,16.28a42.57,42.57,0,0,1,6.83,28.8c-2,17.13-8.06,21.42-8.06,21.42s0,21.67-15.28,33.19c-10.69,8.06-25.3,8.62-25.3,8.62s-18.86,28.64-64.75,12.37c-27.26-9.67-29.39-19.78-29.62-28.35,0,0-18.21-6-21.11-9.42-2.18-2.57-6.43-12.63-7.92-24.14-.15,1.48-.29,3-.4,4.64C250.29,288.35,257.16,306.64,260.2,310.38Z" style="fill: rgb(150, 146, 255); transform-origin: 341.781px 264.285px;" id="el0v245id3a0s" class="animable"></path></g></g><path d="M315.92,103.28c-13.88-6.11-29.31-7.67-43.48-2.71-6.26,2.3-13.34,5.93-16.33,12.07a70,70,0,0,0-4.25,21.53,108.09,108.09,0,0,0,3.1,29.94,75.9,75.9,0,0,1-6.94-30,62.79,62.79,0,0,1,3.59-23.35c3.58-7.88,11.72-12.11,19.36-14.65a52.06,52.06,0,0,1,44.95,7.15Z" style="fill: rgb(150, 146, 255); transform-origin: 281.949px 128.988px;" id="elou2ejyusdga" class="animable"></path><path d="M294.62,84.32a34.32,34.32,0,0,1-8.9,9.64,24.51,24.51,0,0,1-4,2.53,9.71,9.71,0,0,1,1-4.94c2.18-4.38,6.85-7.82,11.94-7.23Z" style="fill: rgb(150, 146, 255); transform-origin: 288.18px 90.372px;" id="elozh3skw869" class="animable"></path><path d="M322.23,142.7c-19.24-2.51-41-2.27-55.18,12.9a79.66,79.66,0,0,0-8,10,37.36,37.36,0,0,0-5,15.23c-1.19,9.91-.27,20.08,1.53,29.94a78.15,78.15,0,0,1-5.09-22.46c-.55-7.91.06-15.94,3.66-23.3,5.11-9.27,12.53-17.67,22.26-22.24,14.38-6.75,31.18-5.08,45.79-.08Z" style="fill: rgb(150, 146, 255); transform-origin: 286.272px 174.537px;" id="elde5o21ho6cr" class="animable"></path><path d="M336.62,107.6c4.11,21.08-13.39,26.42-30.63,22a60.53,60.53,0,0,1-13.94-5.17c5,.34,9.79.94,14.56,1.34,8.45.49,19.19,1.8,25.1-5.24,2.88-3.55,3.91-8.41,4.91-13Z" style="fill: rgb(150, 146, 255); transform-origin: 314.638px 119.284px;" id="elr8tfbpt6cep" class="animable"></path><path d="M354.17,160.38C353,151,348.06,143,341.06,137a106.93,106.93,0,0,0-8.9-6.83c-6.08-4-6.13-3.8,1-2.19a34.74,34.74,0,0,1,15.4,9.5c5.46,5.94,8.67,15.17,5.57,22.91Z" style="fill: rgb(150, 146, 255); transform-origin: 341.52px 143.646px;" id="ellapzjoshqlp" class="animable"></path><path d="M362.72,145.08c-1.64-4.92-3.25-9.23-6.08-13.36-2.12-3.36-4.84-6-7.35-9.12,10.35.55,18.3,13.08,13.43,22.48Z" style="fill: rgb(150, 146, 255); transform-origin: 356.739px 133.84px;" id="eldpxvun5ohyf" class="animable"></path><path d="M384.82,153.78c-7.44-2.54-21.48-10.75-27.28-2.88-.81,1.17-1.83,2.33-1.81,3.85a8.18,8.18,0,0,0,2,4.56,7.6,7.6,0,0,1-2.53-1.43c-4.75-3.86-1.07-11.29,3.49-13.81,9.1-4.6,20.58,2.71,26.1,9.71Z" style="fill: rgb(150, 146, 255); transform-origin: 368.9px 150.972px;" id="elo3g0fwpaad9" class="animable"></path><path d="M283.63,114c-7.53,6.79-16.85,14.85-14.34,25.87a45.42,45.42,0,0,0,4,10.18c-17.3-12-7.71-32.06,10.29-36Z" style="fill: rgb(150, 146, 255); transform-origin: 273.912px 132.025px;" id="elurzgl33ta8k" class="animable"></path><path d="M419.8,199.44a20.66,20.66,0,0,1-9.82-5.89,21.36,21.36,0,0,1-2.64-3.29,7.85,7.85,0,0,1,4.52-.11c4.2,1.17,7.75,4.74,7.94,9.29Z" style="fill: rgb(150, 146, 255); transform-origin: 413.57px 194.655px;" id="el3rjxmjz2ucs" class="animable"></path><path d="M398.67,163c7,4.07,9.12,13.24,8,20.83a13.22,13.22,0,0,1-19,10c6.84-.52,13.24-3.71,14.11-10.72s.28-13.7-3.18-20.08Z" style="fill: rgb(150, 146, 255); transform-origin: 397.311px 179.112px;" id="el87w6wur2n75" class="animable"></path><path d="M373.77,183.24c16.55,5.76,27.37,20.57,23.81,38.42-4,26.27-21.16,32.36-42.62,17.94a60.79,60.79,0,0,1-5.71-4.36l3.85-2.74A26.35,26.35,0,0,1,348,258.82c-6.27,7.09-16.74,7.23-25.32,7.06l1.63-1.42a19,19,0,0,1-2.24,5.42,28.1,28.1,0,0,1-12.37,10.95c-6.57,3.14-13.86,4.18-21,4.19,7-.83,14-2.48,20.1-6s11.57-9.32,12.42-16.5l1.42-.06c7.85-.32,16.76-.44,22.14-6.64a22.4,22.4,0,0,0,3.88-21.51L345,225.22c8.52,7.38,18.67,16.54,30.39,17.24,14,.64,18.42-16.8,19.44-28,1-13.73-9.18-25.55-21-31.24Z" style="fill: rgb(150, 146, 255); transform-origin: 343.479px 234.12px;" id="elea1n1rmeebf" class="animable"></path><path d="M420.5,214.42c5.66,13.94,7.14,31.45-1.86,44.39-8.2,11-22.9,15.55-36.05,14a47.57,47.57,0,0,1-18.39-6,63.17,63.17,0,0,0,24.71,2.42c31.14-4.41,35.75-27.59,31.59-54.8Z" style="fill: rgb(150, 146, 255); transform-origin: 394.634px 243.762px;" id="elbr5p5h9ik1" class="animable"></path><path d="M400.66,278.06c.25,13.37-11.65,23.86-23.68,27.34a32.35,32.35,0,0,1-19.4-.27,43.3,43.3,0,0,1-16.35-9.26,79.6,79.6,0,0,0,17.27,5.5,35.08,35.08,0,0,0,17-.68c11.28-3.35,21.57-11.05,25.15-22.63Z" style="fill: rgb(150, 146, 255); transform-origin: 370.947px 292.408px;" id="elwa5hx0bl25s" class="animable"></path><path d="M354.38,309.76c-10.58,13.38-28.72,18.68-45.26,18.25-11.21-.2-22.29-3.1-32.7-6.84-7.95-2.75-16.69-6.46-21-14.24-4.21-7.48-4.25-16.47-3.47-24.66.67,8,1.51,16.35,6,23.06s12.43,9.24,19.81,11.55c24.86,8.42,55.31,10.9,76.55-7.12Z" style="fill: rgb(150, 146, 255); transform-origin: 302.97px 305.152px;" id="el2rb7w965fnc" class="animable"></path><path d="M255.05,255.1c-8,24.26,9.53,50.56,36,45.23,7.95-1.59,15.1-5.81,21.7-10.57-5.43,6.5-12.47,11.86-20.76,14.3-29.14,8.77-52-23.75-36.95-49Z" style="fill: rgb(150, 146, 255); transform-origin: 281.512px 280.291px;" id="elhoaytahnwbi" class="animable"></path><path d="M377.08,326.87c2-.38,4-.69,6-1l5.87-1.34,2.85-.89c10.13-3,19.52-9.56,24.76-18.75a37.64,37.64,0,0,0,5.53-19c0-8.91-2.33-17.61-5.12-26.35a60.5,60.5,0,0,1,8.89,23c2.92,17.13-8.26,35.19-24.3,41.21-7.7,3.2-16.28,3.85-24.51,3.05Z" style="fill: rgb(150, 146, 255); transform-origin: 401.687px 293.325px;" id="elmhx0v92a14r" class="animable"></path><path d="M361.19,332.22c-1.06,5.09-9.91,6.92-14.29,7.64-13.5,1.72-29.25-.76-39.47-10.41a19.31,19.31,0,0,1-4.61-6.95A33.48,33.48,0,0,0,315.91,331c9.73,3.64,20.3,5,30.68,5,4.13-.21,12.17,0,14.6-3.79Z" style="fill: rgb(150, 146, 255); transform-origin: 332.005px 331.433px;" id="elypbnzl44xjg" class="animable"></path><path d="M307.84,182c.18,8.82-3.93,16.94-12.73,20a39.63,39.63,0,0,1-12.35,2.09c-7.36.18-15.17,1.07-21,5.74-9,7.48-9.36,20.65-9.46,31.63-2.77-11.68-3.07-26.29,6.54-35,6.48-5.83,15.55-7.17,23.81-7.21,13.74,0,21.09-3.35,25.16-17.18Z" style="fill: rgb(150, 146, 255); transform-origin: 279.231px 211.73px;" id="elfhonl7s7mq9" class="animable"></path><path d="M384.47,172.1c-6.16-5.52-13.46-11.08-21.73-12-3.63-.33-7.47.68-9.48,3.74a73.65,73.65,0,0,0-4.55,11.42c-1.21,3.83-2.39,8-2.44,11.93a8.23,8.23,0,0,0,.36,2.69,3.42,3.42,0,0,0,1.16,1.25,54.77,54.77,0,0,0,5.33,3.19c7.86,4,15.09,11,16.49,20.06-3.4-8.2-10.26-13.33-18.21-16.68a45.61,45.61,0,0,1-6.1-3.05c-6.5-3.93-2.91-15.33-1.28-20.91,1.58-4.39,2.89-8.59,5.47-12.59,3-4.33,8.88-5.78,13.75-4.79,9.2,1.78,16.12,8.42,21.23,15.7Z" style="fill: rgb(150, 146, 255); transform-origin: 363.012px 185.221px;" id="elrvch3e3v9s" class="animable"></path><path d="M335.34,252.55a28.72,28.72,0,0,0-9.58-13.12,5.49,5.49,0,0,0-2.3-1.1c-.11,0-.12,0-.3,0a24.37,24.37,0,0,1-3.71,1,30.73,30.73,0,0,1-9.19.39c3.61-2.22,7.24-3.65,10.9-5.45a6.15,6.15,0,0,1,1.52-.56c8.07-1,15.49,12,12.66,18.84Z" style="fill: rgb(150, 146, 255); transform-origin: 323.107px 243.103px;" id="elys07kesi0f" class="animable"></path><path d="M281.68,224.94C267,221,255.48,227,255.11,243c0,5.73.17,13.08,5.57,16.35,5.25,2.68,12.07,1.3,17-1.63,7.53-4.56,12.65-12.91,15.95-21.07,16.63,2.21,31.57.8,40-15.64,4.17-8.18,5.95-17.44,6.76-26.57,1.44-17.9-6.07-29.27-24.65-30.34-9.41-.69-18.88,1.34-27.59,4.9,13.33-7.07,33.32-11,46.47-1.64,8.39,6.19,10.48,17.51,10,27.32-1,13-3.4,26.67-12.43,36.88-9.54,10.93-24,11.84-37.28,10l2.47-1.52a51.84,51.84,0,0,1-7,12c-4.28,5.48-10.17,10.4-17.19,12-4.82,1-9.95,1-14.36-1.61-6.61-4.18-6.91-12.7-6.46-19.63,1.21-16.88,14-23.72,29.36-17.93Z" style="fill: rgb(150, 146, 255); transform-origin: 298.458px 213.253px;" id="elrvhstv34fyf" class="animable"></path><path d="M351.75,246.33c7.52,2.8,14.08,9.51,15.55,17.65,3.1,16.8-14,32-29.28,34.93a50.81,50.81,0,0,1-23.68-.79c7.7,0,15.4-.61,22.69-3a41.76,41.76,0,0,0,22-15.77c8.69-11.76,4.07-25-7.28-33.06Z" style="fill: rgb(150, 146, 255); transform-origin: 341.004px 273.116px;" id="elil3gs1811i" class="animable"></path><path d="M260,80.11c-3.09,4.92-4,9.94-4.91,15.45a127.85,127.85,0,0,0-1.41,16.61C247,103.7,249,84.23,260,80.11Z" style="fill: rgb(150, 146, 255); transform-origin: 254.921px 96.14px;" id="elaxw6z8kj3ah" class="animable"></path><g id="elia1scgnldki"><g style="opacity: 0.5; transform-origin: 338.34px 183.193px;" class="animable"><path d="M264.93,165.5c3.05-.29,5.47,20.82,3.17,24.95-2.62,4.7-9.62,10.83-10.72,7.87S260.34,165.94,264.93,165.5Z" style="fill: rgb(255, 255, 255); transform-origin: 263.105px 182.297px;" id="el3h7ne4xyfmh" class="animable"></path><path d="M415.4,220.9c3.05-.18,5.47,13.14,3.17,15.74-2.63,3-9.63,6.84-10.72,5S410.8,221.18,415.4,220.9Z" style="fill: rgb(255, 255, 255); transform-origin: 413.576px 231.509px;" id="elhoe7m593xs" class="animable"></path><path d="M326.14,213.64c4.22,2.43.49,13.78-7.88,16.57s-15.4.49-15.08-1.64S321.88,211.18,326.14,213.64Z" style="fill: rgb(255, 255, 255); transform-origin: 315.529px 222.435px;" id="elz1j6jgduhuc" class="animable"></path><path d="M331.71,106.15c2.66,2,.31,11.23-5,13.51s-9.71.4-9.51-1.34S329,104.14,331.71,106.15Z" style="fill: rgb(255, 255, 255); transform-origin: 325.002px 113.322px;" id="elnfig7ntvpwg" class="animable"></path><path d="M316.91,264.22c1.59,1.07.5,6.49-2.49,8s-5.6.51-5.53-.5S315.3,263.13,316.91,264.22Z" style="fill: rgb(255, 255, 255); transform-origin: 313.264px 268.552px;" id="elcqgaxr4umw6" class="animable"></path><path d="M272.59,251.27c1.91,1.92-5.36,6.35-8,5.36s-6.56-3.17-4.48-5.36S271,249.63,272.59,251.27Z" style="fill: rgb(255, 255, 255); transform-origin: 266.215px 253.299px;" id="elyb5qh9xlp8d" class="animable"></path><path d="M358.85,261.7c2.75-1.54,3,9,.72,11.77s-6.35,6.65-7.27,3.27S356.48,263,358.85,261.7Z" style="fill: rgb(255, 255, 255); transform-origin: 356.652px 269.801px;" id="elaq9d6prdtki" class="animable"></path><path d="M389,204.67c-.84,2.57-8.09-1.9-8.4-4.69s-.15-7.29,2.74-6.43S389.75,202.46,389,204.67Z" style="fill: rgb(255, 255, 255); transform-origin: 384.795px 199.44px;" id="el9xxmsp6qpcj" class="animable"></path><path d="M331.66,213.27c-2.17.93-5.37-5.11-4-6.74s4.11-3.91,5.92-2S333.51,212.48,331.66,213.27Z" style="fill: rgb(255, 255, 255); transform-origin: 330.822px 208.585px;" id="eliqtvbvqi9x" class="animable"></path><path d="M346.56,282.88c.37-1.47,4.32-2.32,4.56-1.21s.28,3.19-1.27,3.94S346.24,284.14,346.56,282.88Z" style="fill: rgb(255, 255, 255); transform-origin: 348.886px 283.462px;" id="elfdpdi3awa8m" class="animable"></path><path d="M386.8,282.88c.37-1.47,4.31-2.32,4.56-1.21s.28,3.19-1.27,3.94S386.48,284.14,386.8,282.88Z" style="fill: rgb(255, 255, 255); transform-origin: 389.128px 283.462px;" id="elvgopx97f5zd" class="animable"></path><path d="M266.8,80.63c2.35.22,2.29,7.06.32,7.84S261.64,90,261,87.4,264.79,80.45,266.8,80.63Z" style="fill: rgb(255, 255, 255); transform-origin: 264.759px 84.915px;" id="elder6n4t0ucf" class="animable"></path></g></g></g><defs>     <filter id="active" height="200%">         <feMorphology in="SourceAlpha" result="DILATED" operator="dilate" radius="2"></feMorphology>                <feFlood flood-color="#32DFEC" flood-opacity="1" result="PINK"></feFlood>        <feComposite in="PINK" in2="DILATED" operator="in" result="OUTLINE"></feComposite>        <feMerge>            <feMergeNode in="OUTLINE"></feMergeNode>            <feMergeNode in="SourceGraphic"></feMergeNode>        </feMerge>    </filter>    <filter id="hover" height="200%">        <feMorphology in="SourceAlpha" result="DILATED" operator="dilate" radius="2"></feMorphology>                <feFlood flood-color="#ff0000" flood-opacity="0.5" result="PINK"></feFlood>        <feComposite in="PINK" in2="DILATED" operator="in" result="OUTLINE"></feComposite>        <feMerge>            <feMergeNode in="OUTLINE"></feMergeNode>            <feMergeNode in="SourceGraphic"></feMergeNode>        </feMerge>            <feColorMatrix type="matrix" values="0   0   0   0   0                0   1   0   0   0                0   0   0   0   0                0   0   0   1   0 "></feColorMatrix>    </filter></defs></svg>